
<svg xmlns="http://www.w3.org/2000/svg" version="1.1" xmlns:xlink="http://www.w3.org/1999/xlink" preserveAspectRatio="none" x="0px" y="0px" width="200px" height="200px" viewBox="0 0 200 200">
<defs>
<path id="HTML5_0_Layer1_0_1_STROKES" stroke="#FFFFFF" stroke-width="1" stroke-linejoin="round" stroke-linecap="round" fill="none" d="
M 34.85 143.75
L 53.3 143.75 53.3 156.85 72.95 163 96.35 157.3 96.35 135.15 33.2 135.15 27.45 79.4 122.15 79.4 118.05 97.05 50 97.05 50 115.05 119.7 115.05 114.35 170.8 76.25 182.3 37.3 171.2 34.85 143.75 Z
M 13.1 195.8
L 74.2 212.2 136.9 195.8 150.05 49.9 0 49.9 13.1 195.8 Z"/>

<path id="HTML5_0_Layer0_0_1_STROKES" stroke="#FFFFFF" stroke-width="1" stroke-linejoin="round" stroke-linecap="round" fill="none" d="
M 114.4 10.05
L 126.15 10.05 126.15 30.15 136.3 30.15 136.3 36.85 114.4 36.85 114.4 10.05 Z
M 77.65 9.95
L 89.25 9.95 93.6 15.65 98.2 10.05 109.9 10.05 109.9 36.85 98.2 36.85 98.2 22.975 93.35 28.7 89.25 23.1 89.25 37 77.65 37 77.65 9.95 Z
M 51.6 10.2
L 74.5 10.2 74.5 21.6 68.85 21.6 68.85 36.85 57.4 36.85 57.4 21.6 51.6 21.6 51.6 10.2 Z
M 19.4 10.05
L 30.75 10.05 30.75 19.9 37.1 19.9 37.1 10.2 48.55 10.2 48.55 36.85 37.1 36.85 37.1 27.1 30.75 27.1 30.75 36.85 19.4 36.85 19.4 10.05 Z"/>
</defs>

<g transform="matrix( 0.8246612548828125, 0, 0, 0.8246612548828125, 39.45,6.1) ">
<g transform="matrix( 1, 0, 0, 1, 0,0) ">
<use xlink:href="#HTML5_0_Layer1_0_1_STROKES"/>
</g>

<g transform="matrix( 1, 0, 0, 1, 0,0) ">
<use xlink:href="#HTML5_0_Layer0_0_1_STROKES"/>
</g>
</g>
</svg>
