
<svg xmlns="http://www.w3.org/2000/svg" version="1.1" xmlns:xlink="http://www.w3.org/1999/xlink" preserveAspectRatio="none" x="0px" y="0px" width="200px" height="200px" viewBox="0 0 200 200">
<defs>
<path id="baixa_complexidade_0_Layer0_0_1_STROKES" stroke="#FFFFFF" stroke-width="1" stroke-linejoin="round" stroke-linecap="round" fill="none" d="
M 96.65 34.65
L 100.95 40.6 97.4 46.35
M 0 0
L 108.6 0 108.6 80.7 0 80.7 0 0 Z
M 12.85 35.1
L 7.4 40.35 41.3 40.35
M 7.4 40.35
L 11.7 45.85
M 49.2 88.7
Q 49.2 89.55 48.6 90.15 48 90.75 47.15 90.75 46.3 90.75 45.7 90.15 45.1 89.55 45.1 88.7 45.1 87.85 45.7 87.25 46.3 86.65 47.15 86.65 48 86.65 48.6 87.25 49.2 87.85 49.2 88.7 Z
M 56.8 88.7
Q 56.8 89.55 56.2 90.15 55.6 90.75 54.75 90.75 53.9 90.75 53.3 90.15 52.7 89.55 52.7 88.7 52.7 87.85 53.3 87.25 53.9 86.65 54.75 86.65 55.6 86.65 56.2 87.25 56.8 87.85 56.8 88.7 Z
M 64.4 88.7
Q 64.4 89.55 63.8 90.15 63.2 90.75 62.35 90.75 61.5 90.75 60.9 90.15 60.3 89.55 60.3 88.7 60.3 87.85 60.9 87.25 61.5 86.65 62.35 86.65 63.2 86.65 63.8 87.25 64.4 87.85 64.4 88.7 Z
M 65.9 40.6
L 100.95 40.6"/>
</defs>

<g transform="matrix( 1.56463623046875, 0, 0, 1.56463623046875, 15.35,35.1) ">
<g transform="matrix( 1, 0, 0, 1, 0,0) ">
<use xlink:href="#baixa_complexidade_0_Layer0_0_1_STROKES"/>
</g>
</g>
</svg>
