
<svg xmlns="http://www.w3.org/2000/svg" version="1.1" xmlns:xlink="http://www.w3.org/1999/xlink" preserveAspectRatio="none" x="0px" y="0px" width="200px" height="200px" viewBox="0 0 200 200">
<defs>
<image id="FL_21_128_png" x="0" y="0" width="256" height="256" xlink:href="./imagens/FL_21_128_png.png"/>

<path id="anima_2_0_Layer0_0_1_STROKES" stroke="#FFFFFF" stroke-width="1" stroke-linejoin="round" stroke-linecap="round" fill="none" d="
M 110.6 45.65
Q 110.6 49.65 107.75 52.5 104.9 55.35 100.9 55.35 96.9 55.35 94.05 52.5 91.2 49.65 91.2 45.65 91.2 41.65 94.05 38.8 96.9 35.95 100.9 35.95 104.9 35.95 107.75 38.8 110.6 41.65 110.6 45.65 Z
M 75.4 74.3
L 84.65 66.05 93.95 76.1
Q 99.5 79.2 105 78.5 109.65 75.35 108.55 68.85
L 97.35 64.8 84.65 43.55
Q 71.85 41.9 61.35 43.55 50.6 47.45 44.2 52.95 43.75 58.1 49.1 60.7 56.9 58.35 63 53.75
L 72.4 53.75 56.45 71.75 53.05 89.9 33.2 89.9
Q 27.85 94.1 33.2 99.05
L 61.55 97.3 66.25 82.05 79.65 92.05 79.65 110.3
Q 85.15 113 89.75 110.3
L 89.75 86.5 75.4 74.3 Z
M 150.5 75.25
Q 150.5 106.4 128.4 128.4 106.4 150.5 75.25 150.5 44.1 150.5 22 128.4 0 106.4 0 75.25 0 44.1 22 22 44.1 0 75.25 0 106.4 0 128.4 22 150.5 44.1 150.5 75.25 Z"/>
</defs>

<g transform="matrix( 0.6082000732421875, 0, 0, 0.6082000732421875, 22.85,19.1) ">
<use xlink:href="#FL_21_128_png"/>
</g>

<g transform="matrix( 1, 0, 0, 1, 25.3,22.65) ">
<g transform="matrix( 1, 0, 0, 1, 0,0) ">
<use xlink:href="#anima_2_0_Layer0_0_1_STROKES"/>
</g>
</g>
</svg>
