
<svg xmlns="http://www.w3.org/2000/svg" version="1.1" xmlns:xlink="http://www.w3.org/1999/xlink" preserveAspectRatio="none" x="0px" y="0px" width="200px" height="200px" viewBox="0 0 200 200">
<defs>
<path id="anima_2_0_Layer0_0_1_STROKES" stroke="#FFFFFF" stroke-width="1" stroke-linejoin="round" stroke-linecap="round" fill="none" d="
M 110.6 45.65
Q 110.6 49.65 107.75 52.5 104.9 55.35 100.9 55.35 96.9 55.35 94.05 52.5 91.2 49.65 91.2 45.65 91.2 41.65 94.05 38.8 96.9 35.95 100.9 35.95 104.9 35.95 107.75 38.8 110.6 41.65 110.6 45.65 Z
M 75.4 74.3
L 84.65 66.05 93.95 76.1
Q 99.5 79.2 105 78.5 109.65 75.35 108.55 68.85
L 97.35 64.8 84.65 43.55
Q 71.85 41.9 61.35 43.55 50.6 47.45 44.2 52.95 43.75 58.1 49.1 60.7 56.9 58.35 63 53.75
L 72.4 53.75 56.45 71.75 53.05 89.9 33.2 89.9
Q 27.85 94.1 33.2 99.05
L 61.55 97.3 66.25 82.05 79.65 92.05 79.65 110.3
Q 85.15 113 89.75 110.3
L 89.75 86.5 75.4 74.3 Z
M 150.5 75.25
Q 150.5 106.4 128.4 128.4 106.4 150.5 75.25 150.5 44.1 150.5 22 128.4 0 106.4 0 75.25 0 44.1 22 22 44.1 0 75.25 0 106.4 0 128.4 22 150.5 44.1 150.5 75.25 Z"/>

<path id="audio_ico_0_Layer0_0_1_STROKES" stroke="#FFFFFF" stroke-width="1" stroke-linejoin="round" stroke-linecap="round" fill="none" d="
M 110.05 16.5
Q 145.9 56.8 110.05 109.75
L 104.25 92.65
Q 120.75 62.65 104.25 32.6
L 110.05 16.5 Z
M 80.35 47.15
Q 91.7 61.3 80.35 77.8
L 89.7 89.1
Q 108.9 62.95 89.7 36.8
L 80.35 47.15 Z
M 70.35 0.35
L 70.35 122.05 64.05 126.8 29.7 95.9 3.85 95.9 0 91.35 0 38.1 3.85 31.95 26.8 31.95 59.05 0 70.35 0.35 Z"/>
</defs>

<g transform="matrix( 1, 0, 0, 1, 25.3,22.65) ">
<g transform="matrix( 1, 0, 0, 1, 0,0) ">
<use xlink:href="#anima_2_0_Layer0_0_1_STROKES"/>
</g>
</g>

<g transform="matrix( 0.2728729248046875, 0, 0, 0.2728729248046875, 152.5,151) ">
<g transform="matrix( 1, 0, 0, 1, 0,0) ">
<use xlink:href="#audio_ico_0_Layer0_0_1_STROKES"/>
</g>
</g>
</svg>
