
<svg xmlns="http://www.w3.org/2000/svg" version="1.1" xmlns:xlink="http://www.w3.org/1999/xlink" preserveAspectRatio="none" x="0px" y="0px" width="200px" height="200px" viewBox="0 0 200 200">
<defs>
<path id="Layer0_0_1_STROKES" stroke="#FFFFFF" stroke-width="1" stroke-linejoin="round" stroke-linecap="round" fill="none" d="
M 125.55 0
L 125.55 22.9 125.55 44.85 125.55 125.55 0 125.55 0 44.85 0 22.9 0 0 27.65 0 58.7 0 91.5 0 125.55 0 Z
M 91.5 0
L 125.55 22.9 93.55 44.85 125.55 44.85
M 58.7 0
L 93 22.9 125.55 22.9
M 0 44.85
L 31.5 44.85 62.75 22.9 0 22.9
M 62.75 22.9
L 27.65 0
M 31.5 44.85
L 66.65 44.85 93 22.9 62.75 22.9
M 66.65 44.85
L 93.55 44.85"/>
</defs>

<g transform="matrix( 1.0946044921875, 0, 0, 1.0946044921875, 31.6,29.15) ">
<g transform="matrix( 1, 0, 0, 1, 0,0) ">
<use xlink:href="#Layer0_0_1_STROKES"/>
</g>
</g>
</svg>
